<?xml version="1.0" encoding="UTF-8" standalone="no"?><!DOCTYPE svg PUBLIC "-//W3C//DTD SVG 1.1//EN"
        "http://www.w3.org/Graphics/SVG/1.1/DTD/svg11.dtd">
<svg width="100%" height="100%" viewBox="0 0 1100 1100" version="1.1" xmlns="http://www.w3.org/2000/svg"
     xml:space="preserve" xmlns:serif="http://www.serif.com/"
     style="fill-rule:evenodd;clip-rule:evenodd;stroke-linejoin:round;stroke-miterlimit:2;"><rect x="50" y="50" width="1000" height="1000" style="fill:#262626;"/>
    <rect x="150" y="150" width="800" height="100" style="fill:#f2f2f2;"/>
    <rect x="150" y="325" width="800" height="100" style="fill:#f2f2f2;"/>
    <path d="M285.254,789.342l-75.684,0l0,41.667l28.646,0l0,-1.953c0,-6.185 1.356,-10.796 4.069,-13.835c2.713,-3.038 6.836,-4.557 12.37,-4.557c4.883,0 8.87,1.384 11.963,4.15c3.092,2.767 4.639,6.267 4.639,10.499c-0,0.217 0.054,0.922 0.162,2.115c0.109,1.194 0.163,2.388 0.163,3.581l0,33.692c0,7.269 -1.302,12.478 -3.906,15.625c-2.604,3.146 -6.836,4.72 -12.696,4.72c-5.533,-0 -9.711,-1.465 -12.532,-4.395c-2.821,-2.93 -4.232,-7.27 -4.232,-13.021l0,-2.929l-28.646,-0l0,48.665l75.684,-0l-0,-19.369c-0,-7.27 1.383,-12.478 4.15,-15.625c2.767,-3.146 7.297,-4.72 13.591,-4.72c6.185,0 10.606,1.547 13.265,4.639c2.658,3.092 3.987,8.328 3.987,15.706l0,39.388c0,5.86 -1.139,9.766 -3.418,11.719c-2.278,1.953 -6.781,2.93 -13.509,2.93l-133.3,-0c-7.162,-0 -12.289,-1.411 -15.381,-4.232c-3.093,-2.821 -4.639,-7.433 -4.639,-13.835c0,-5.75 1.465,-10.118 4.395,-13.102c2.929,-2.984 7.215,-4.476 12.858,-4.476l2.767,0l-0,-121.419l-2.767,0c-5.534,0 -9.793,-1.546 -12.777,-4.639c-2.984,-3.092 -4.476,-7.514 -4.476,-13.265c0,-6.293 1.573,-10.877 4.72,-13.753c3.147,-2.875 8.247,-4.313 15.3,-4.313l133.3,-0c6.619,-0 11.095,1.004 13.428,3.011c2.333,2.007 3.499,5.995 3.499,11.963l0,36.458c0,7.379 -1.356,12.668 -4.069,15.869c-2.712,3.201 -7.107,4.802 -13.183,4.802c-6.294,-0 -10.824,-1.628 -13.591,-4.883c-2.767,-3.255 -4.15,-8.518 -4.15,-15.788l-0,-17.09Z"
          style="fill:#f2f2f2;fill-rule:nonzero;"/>
    <path d="M506.934,912.064l2.115,-0c6.077,-0 10.634,1.492 13.672,4.476c3.039,2.984 4.558,7.46 4.558,13.427c-0,6.402 -1.547,11.014 -4.639,13.835c-3.092,2.821 -8.328,4.232 -15.706,4.232l-40.039,-0c-7.27,-0 -12.506,-1.411 -15.707,-4.232c-3.201,-2.821 -4.801,-7.433 -4.801,-13.835c-0,-5.967 1.546,-10.443 4.638,-13.427c3.093,-2.984 7.732,-4.476 13.916,-4.476l1.954,-0l-0,-47.038c-0,-13.021 -1.818,-22.271 -5.453,-27.751c-3.635,-5.479 -9.684,-8.219 -18.148,-8.219c-9.006,-0 -16.357,3.282 -22.054,9.847c-5.696,6.565 -8.545,15.272 -8.545,26.123l0,47.038l1.953,-0c6.185,-0 10.797,1.492 13.835,4.476c3.038,2.984 4.557,7.46 4.557,13.427c0,6.402 -1.573,11.014 -4.72,13.835c-3.146,2.821 -8.355,4.232 -15.625,4.232l-40.364,-0c-7.27,-0 -12.479,-1.411 -15.625,-4.232c-3.147,-2.821 -4.72,-7.433 -4.72,-13.835c-0,-5.967 1.519,-10.443 4.557,-13.427c3.038,-2.984 7.65,-4.476 13.835,-4.476l1.953,-0l-0,-78.776l-2.767,-0c-5.86,-0 -10.308,-1.492 -13.347,-4.476c-3.038,-2.984 -4.557,-7.351 -4.557,-13.102c0,-6.402 1.574,-11.014 4.72,-13.835c3.147,-2.821 8.464,-4.232 15.951,-4.232l27.669,0c3.038,0 5.344,0.597 6.917,1.791c1.574,1.193 2.36,2.929 2.36,5.208l0,12.695c4.992,-7.812 11.366,-13.699 19.125,-17.659c7.758,-3.961 16.737,-5.941 26.937,-5.941c17.361,-0 30.3,5.263 38.818,15.788c8.518,10.525 12.777,26.584 12.777,48.177l-0,54.362Z"
          style="fill:#f2f2f2;fill-rule:nonzero;"/>
    <path d="M609.961,833.288l29.297,69.336l30.762,-69.336l-2.605,-0c-5.859,-0 -10.335,-1.519 -13.427,-4.558c-3.093,-3.038 -4.639,-7.487 -4.639,-13.346c-0,-6.402 1.546,-10.959 4.639,-13.672c3.092,-2.712 8.436,-4.069 16.032,-4.069l38.248,0c7.596,0 12.94,1.384 16.032,4.151c3.093,2.767 4.639,7.297 4.639,13.59c-0,5.859 -1.519,10.308 -4.557,13.346c-3.039,3.039 -7.487,4.558 -13.347,4.558l-2.767,-0l-48.34,102.702c-3.58,7.378 -6.808,11.908 -9.684,13.59c-2.875,1.682 -7.297,2.523 -13.265,2.523c-10.851,-0 -18.175,-4.557 -21.972,-13.672c-0.435,-1.085 -0.76,-1.899 -0.977,-2.441l-45.41,-102.702l-2.604,-0c-5.86,-0 -10.336,-1.519 -13.428,-4.558c-3.093,-3.038 -4.639,-7.487 -4.639,-13.346c0,-6.402 1.574,-10.959 4.72,-13.672c3.147,-2.712 8.464,-4.069 15.951,-4.069l41.341,0c7.487,0 12.804,1.384 15.95,4.151c3.147,2.767 4.721,7.297 4.721,13.59c-0,5.859 -1.547,10.308 -4.639,13.346c-3.093,3.039 -7.514,4.558 -13.265,4.558l-2.767,-0Z"
          style="fill:#f2f2f2;fill-rule:nonzero;"/>
    <path id="_-Project-" serif:id="(Project)"
          d="M209.57,634.948l0,33.366l16.765,-0c7.053,-0 12.071,1.356 15.055,4.069c2.984,2.712 4.476,7.216 4.476,13.509c-0,6.402 -1.519,11.013 -4.557,13.835c-3.039,2.821 -8.03,4.231 -14.974,4.231l-56.315,0c-7.162,0 -12.289,-1.41 -15.381,-4.231c-3.093,-2.822 -4.639,-7.433 -4.639,-13.835c0,-5.751 1.465,-10.118 4.395,-13.102c2.929,-2.984 7.215,-4.476 12.858,-4.476l2.767,-0l-0,-121.419l-2.767,-0c-5.534,-0 -9.793,-1.547 -12.777,-4.639c-2.984,-3.093 -4.476,-7.514 -4.476,-13.265c0,-6.294 1.573,-10.878 4.72,-13.753c3.147,-2.876 8.247,-4.314 15.3,-4.314l67.22,0c26.584,0 46.685,5.1 60.302,15.3c13.618,10.2 20.427,25.228 20.427,45.085c-0,20.941 -6.782,36.783 -20.345,47.526c-13.564,10.742 -33.692,16.113 -60.384,16.113l-27.67,-0Zm0,-88.053l0,51.432l23.112,-0c12.804,-0 22.434,-2.17 28.89,-6.511c6.456,-4.34 9.685,-10.85 9.685,-19.531c-0,-8.138 -3.337,-14.404 -10.01,-18.799c-6.673,-4.394 -16.195,-6.591 -28.565,-6.591l-23.112,-0Z"
          style="fill:#f2f2f2;fill-rule:nonzero;"/>
    <path d="M424.251,615.579l0,52.735l38.412,-0c7.378,-0 12.614,1.356 15.706,4.069c3.093,2.712 4.639,7.216 4.639,13.509c-0,6.402 -1.546,11.013 -4.639,13.835c-3.092,2.821 -8.328,4.231 -15.706,4.231l-90.983,0c-7.487,0 -12.804,-1.41 -15.951,-4.231c-3.147,-2.822 -4.72,-7.433 -4.72,-13.835c0,-6.293 1.546,-10.797 4.639,-13.509c3.092,-2.713 8.436,-4.069 16.032,-4.069l12.369,-0l0,-79.102l-6.998,0c-7.379,0 -12.614,-1.383 -15.707,-4.15c-3.092,-2.767 -4.638,-7.351 -4.638,-13.753c-0,-6.402 1.492,-10.96 4.476,-13.672c2.984,-2.713 8.273,-4.069 15.869,-4.069l34.668,-0c2.929,-0 5.208,0.624 6.836,1.871c1.627,1.248 2.441,2.957 2.441,5.127l0,24.089c11.827,-12.695 22.868,-21.756 33.122,-27.181c10.254,-5.425 21.294,-8.138 33.122,-8.138c10.742,-0 19.26,2.414 25.553,7.243c6.293,4.828 9.44,11.312 9.44,19.45c0,6.293 -2.17,11.474 -6.51,15.543c-4.341,4.069 -9.929,6.104 -16.765,6.104c-4.882,-0 -10.66,-1.791 -17.334,-5.371c-6.673,-3.581 -11.312,-5.371 -13.916,-5.371c-5.208,-0 -11.339,2.332 -18.392,6.998c-7.053,4.666 -15.408,11.882 -25.065,21.647Z"
          style="fill:#f2f2f2;fill-rule:nonzero;"/>
    <path d="M631.608,584.329c-12.695,0 -23.139,4.151 -31.331,12.452c-8.193,8.3 -12.289,18.907 -12.289,31.819c0,13.021 4.096,23.79 12.289,32.308c8.192,8.518 18.636,12.777 31.331,12.777c12.695,-0 23.166,-4.259 31.413,-12.777c8.246,-8.518 12.37,-19.287 12.37,-32.308c-0,-12.912 -4.097,-23.519 -12.289,-31.819c-8.192,-8.301 -18.69,-12.452 -31.494,-12.452Zm0,-34.342c26.367,-0 47.743,7.378 64.128,22.135c16.384,14.757 24.576,33.692 24.576,56.804c0,23.22 -8.192,42.209 -24.576,56.966c-16.385,14.757 -37.761,22.135 -64.128,22.135c-26.259,0 -47.58,-7.378 -63.965,-22.135c-16.384,-14.757 -24.577,-33.746 -24.577,-56.966c0,-23.112 8.22,-42.047 24.659,-56.804c16.438,-14.757 37.733,-22.135 63.883,-22.135Z"
          style="fill:#f2f2f2;fill-rule:nonzero;"/>
    <path d="M833.105,589.212l-54.362,0c-7.486,0 -12.803,-1.41 -15.95,-4.232c-3.147,-2.821 -4.72,-7.378 -4.72,-13.671c-0,-6.402 1.546,-10.96 4.639,-13.672c3.092,-2.713 8.436,-4.069 16.031,-4.069l84.961,-0c3.039,-0 5.399,0.624 7.081,1.871c1.681,1.248 2.522,2.957 2.522,5.127l0,140.788c0,22.57 -6.103,39.47 -18.31,50.7c-12.207,11.231 -30.626,16.846 -55.257,16.846c-17.036,-0 -29.135,-1.709 -36.296,-5.127c-7.161,-3.418 -10.742,-9.25 -10.742,-17.497c-0,-5.208 1.41,-9.115 4.232,-11.719c2.821,-2.604 6.944,-3.906 12.369,-3.906c2.496,0 7.569,0.543 15.218,1.628c7.65,1.085 14.025,1.627 19.125,1.627c11.068,0 18.744,-3.092 23.03,-9.277c4.286,-6.185 6.429,-19.314 6.429,-39.388l0,-96.029Zm9.603,-109.212c7.813,0 13.048,1.519 15.707,4.557c2.658,3.038 3.987,10.308 3.987,21.81c0,11.285 -1.166,18.202 -3.499,20.752c-2.333,2.55 -7.731,3.825 -16.195,3.825c-8.572,0 -14.106,-1.275 -16.601,-3.825c-2.496,-2.55 -3.744,-7.514 -3.744,-14.892c0,-13.889 1.248,-22.733 3.744,-26.53c2.495,-3.798 8.029,-5.697 16.601,-5.697Z"
          style="fill:#f2f2f2;fill-rule:nonzero;"/></svg>